<svg width="480" height="291" viewBox="0 0 480 291" fill="none" xmlns="http://www.w3.org/2000/svg">
<g filter="url(#filter0_d_2_25)">
<circle cx="242" cy="55" r="50" fill="#8587EE"/>
</g>
<g filter="url(#filter1_d_2_25)">
<path d="M84.664 200.608C81.2507 203.168 77.6667 205.045 73.912 206.24C70.2427 207.349 66.5733 207.648 62.904 207.136C59.2347 206.624 56.0773 205.045 53.432 202.4C51.0427 209.995 49.4213 217.504 48.568 224.928C48.2267 226.293 47.6293 227.531 46.776 228.64C45.24 233.163 41.8693 236.192 36.664 237.728C31.544 239.179 26.7653 238.923 22.328 236.96C20.28 236.021 18.5733 234.656 17.208 232.864C15.8427 231.072 15.16 228.896 15.16 226.336C21.048 205.941 26.7227 189.216 32.184 176.16C33.3787 173.429 34.3173 171.211 35 169.504C35.768 167.797 36.4507 166.347 37.048 165.152C37.6453 163.957 38.1573 162.933 38.584 162.08C39.096 161.141 39.6933 160.117 40.376 159.008C41.912 156.448 43.6613 153.461 45.624 150.048C47.672 146.549 49.3787 143.947 50.744 142.24C52.1947 140.533 53.688 139.083 55.224 137.888C56.8453 136.608 58.5947 135.413 60.472 134.304C62.4347 133.195 64.8667 131.744 67.768 129.952C70.6693 128.16 73.7413 127.093 76.984 126.752C80.312 126.325 83.4693 126.581 86.456 127.52C92.7707 129.483 97.4213 133.877 100.408 140.704C102.968 147.019 103.395 155.509 101.688 166.176C99.0427 182.475 93.368 193.952 84.664 200.608ZM57.912 189.216C64.9093 187.68 69.7733 183.115 72.504 175.52C74.808 169.12 75.2773 161.867 73.912 153.76C71.9493 157.088 70.1573 160.544 68.536 164.128C67 167.712 65.592 170.912 64.312 173.728C61.496 180.043 59.3627 185.205 57.912 189.216ZM155.249 173.088L155.761 173.216C155.932 173.216 156.017 173.259 156.017 173.344C158.236 172.491 160.07 173.131 161.521 175.264C162.46 176.715 163.185 178.933 163.697 181.92C163.868 186.016 163.441 191.691 162.417 198.944C160.454 213.621 159.388 222.368 159.217 225.184C159.388 228.171 157.553 230.219 153.713 231.328C150.385 232.352 147.057 232.309 143.729 231.2C140.23 230.005 138.78 228.171 139.377 225.696C138.694 226.976 138.012 227.872 137.329 228.384C136.646 228.981 135.281 229.749 133.233 230.688C131.27 231.712 128.454 232.523 124.785 233.12C121.116 233.803 117.446 233.973 113.777 233.632C110.108 233.376 106.737 232.48 103.665 230.944C100.678 229.493 98.673 227.189 97.649 224.032C95.6863 217.888 95.9423 210.08 98.417 200.608C100.124 194.379 103.196 188.875 107.633 184.096C112.753 178.635 118.556 174.112 125.041 170.528C129.905 167.883 134.598 166.304 139.121 165.792C140.657 165.621 141.98 165.664 143.089 165.92C144.284 166.176 145.521 166.432 146.801 166.688C148.166 166.944 149.446 167.328 150.641 167.84C153.713 169.12 155.249 170.869 155.249 173.088ZM131.569 207.008C132.166 205.813 132.636 204.32 132.977 202.528C133.404 200.736 133.958 198.773 134.641 196.64C127.729 199.456 122.438 202.912 118.769 207.008C114.758 211.531 115.014 214.645 119.537 216.352C123.462 217.376 126.321 216.736 128.113 214.432C128.881 213.408 129.564 212.128 130.161 210.592C130.758 209.056 131.484 207.477 132.337 205.856C132.081 206.283 131.825 206.667 131.569 207.008ZM169.858 188.832C169.943 185.333 169.687 182.475 169.09 180.256C168.493 178.037 168.493 176.203 169.09 174.752C169.773 173.216 170.797 172.149 172.162 171.552C173.613 170.955 175.277 170.784 177.154 171.04C179.117 171.211 181.037 171.765 182.914 172.704C187.437 174.752 190.594 177.653 192.386 181.408C192.813 183.285 192.642 185.632 191.874 188.448C191.191 191.179 190.381 194.037 189.442 197.024C188.503 199.925 187.607 202.784 186.754 205.6C185.901 208.331 185.559 210.635 185.73 212.512C187.949 211.147 189.869 209.099 191.49 206.368C193.197 203.637 194.733 200.736 196.098 197.664C197.549 194.507 198.871 191.392 200.066 188.32C201.346 185.248 202.541 182.816 203.65 181.024C204.845 179.232 205.783 177.824 206.466 176.8C207.149 175.691 207.831 174.709 208.514 173.856C209.623 172.405 211.074 170.997 212.866 169.632C213.378 169.205 214.914 169.291 217.474 169.888C220.119 170.4 222.039 170.784 223.234 171.04C224.514 171.211 225.367 171.125 225.794 170.784L227.586 169.504C229.975 168.309 232.791 168.352 236.034 169.632C239.191 170.997 240.855 173.088 241.026 175.904C240.941 175.989 240.898 176.16 240.898 176.416L241.282 176.544L240.386 177.312C239.789 178.421 239.319 179.189 238.978 179.616C238.722 179.957 238.125 180.512 237.186 181.28C231.383 187.509 224.727 199.072 217.218 215.968C215.341 220.149 213.634 223.904 212.098 227.232C214.402 228.683 216.151 230.56 217.346 232.864C218.541 235.168 218.541 237.685 217.346 240.416C210.263 246.048 206.295 251.339 205.442 256.288C205.015 259.36 204.461 261.536 203.778 262.816C203.181 264.096 202.199 265.333 200.834 266.528C196.226 269.941 190.807 269.088 184.578 263.968C180.141 259.531 179.927 253.984 183.938 247.328C184.962 245.536 185.943 243.659 186.882 241.696C188.247 238.795 190.423 234.485 193.41 228.768C186.071 233.035 179.33 232.949 173.186 228.512C168.834 225.184 167.298 217.632 168.578 205.856C169.431 198.005 169.858 192.331 169.858 188.832Z" fill="#F75467"/>
<path d="M264.234 143.264C269.61 137.12 275.583 133.28 282.154 131.744C286.677 130.635 290.943 130.805 294.954 132.256C298.111 128.928 302.207 127.733 307.242 128.672C311.85 129.525 315.775 132.128 319.018 136.48C319.189 137.077 319.53 137.973 320.042 139.168C320.639 140.363 321.194 141.685 321.706 143.136C325.461 151.84 325.759 163.275 322.602 177.44C318.677 195.019 311.722 209.909 301.738 222.112C298.666 225.867 295.21 228.981 291.37 231.456C285.226 236.149 277.887 238.24 269.354 237.728C264.063 237.472 259.626 236.149 256.042 233.76C241.791 226.677 237.141 211.915 242.09 189.472C246.186 171.04 253.567 155.637 264.234 143.264ZM265.77 211.232L265.642 212L265.898 213.408C266.41 216.053 267.263 218.101 268.458 219.552C269.653 220.917 270.634 221.771 271.402 222.112C272.255 221.429 273.109 220.789 273.962 220.192C274.815 219.595 275.583 218.869 276.266 218.016C282.069 210.848 286.591 201.461 289.834 189.856C293.077 178.251 294.271 167.499 293.418 157.6C290.09 161.867 286.591 166.773 282.922 172.32C279.253 177.867 276.351 182.603 274.218 186.528C269.354 195.659 266.538 203.893 265.77 211.232ZM341.376 172.576C347.093 170.272 350.933 170.229 352.896 172.448C353.92 173.643 354.432 175.307 354.432 177.44V178.08C357.589 174.411 363.093 171.339 370.944 168.864C379.221 166.304 386.048 165.579 391.424 166.688C398.421 168.139 402.347 172.704 403.2 180.384C403.883 186.869 402.389 195.104 398.72 205.088C397.525 207.648 396.587 209.739 395.904 211.36C395.307 212.896 394.752 214.304 394.24 215.584C393.131 217.973 391.381 220.832 388.992 224.16C387.627 226.72 385.493 228.683 382.592 230.048C379.776 231.413 376.96 232.181 374.144 232.352C371.413 232.608 369.152 232.181 367.36 231.072C365.568 230.048 365.056 228.384 365.824 226.08C367.787 220.789 369.408 215.968 370.688 211.616C371.968 207.264 373.291 203.552 374.656 200.48C375.936 196.128 376.107 193.397 375.168 192.288C374.4 191.435 373.077 191.563 371.2 192.672C369.579 193.696 368.427 194.891 367.744 196.256C366.208 197.365 363.307 201.803 359.04 209.568C357.845 211.701 356.651 213.835 355.456 215.968C354.347 218.016 353.28 219.936 352.256 221.728C351.317 223.52 350.464 225.013 349.696 226.208C349.013 227.403 348.373 228.171 347.776 228.512C347.264 228.939 346.795 229.195 346.368 229.28C346.027 229.451 345.728 229.621 345.472 229.792C345.216 229.963 345.003 230.517 344.832 231.456C344.491 233.419 342.443 234.869 338.688 235.808C332.629 237.344 327.168 237.088 322.304 235.04C320.683 234.357 319.403 233.419 318.464 232.224C316.501 228.299 319.872 214.944 328.576 192.16C331.648 184.139 333.653 179.36 334.592 177.824C336.725 174.581 338.091 172.747 338.688 172.32C339.371 171.893 340.267 171.979 341.376 172.576ZM448.172 209.056C446.551 209.824 444.972 210.421 443.436 210.848C441.9 211.275 440.108 211.701 438.06 212.128C432.684 213.237 428.801 213.877 426.412 214.048C426.668 214.901 427.948 215.925 430.252 217.12C431.788 217.376 433.452 217.163 435.244 216.48C437.121 215.712 439.041 215.029 441.004 214.432C443.052 213.749 445.015 213.365 446.892 213.28C448.855 213.195 450.689 213.92 452.396 215.456C453.079 216.992 453.633 217.888 454.06 218.144C454.487 218.4 454.871 218.528 455.212 218.528C455.553 218.528 455.937 218.656 456.364 218.912C456.791 219.168 457.388 220.149 458.156 221.856C459.009 223.563 458.796 225.184 457.516 226.72C456.321 228.256 454.444 229.579 451.884 230.688C449.324 231.797 446.337 232.693 442.924 233.376C439.511 234.059 436.097 234.528 432.684 234.784C425.004 235.381 419.159 234.784 415.148 232.992C409.345 231.029 405.591 227.147 403.884 221.344C401.665 213.664 402.903 204.704 407.596 194.464C409.729 189.685 413.1 184.565 417.708 179.104C421.719 174.325 426.199 170.869 431.148 168.736C436.865 166.261 442.839 165.109 449.068 165.28C455.724 165.451 460.332 168.352 462.892 173.984C464.172 176.971 464.428 181.152 463.66 186.528C462.295 193.525 460.503 198.475 458.284 201.376C456.065 204.192 452.695 206.752 448.172 209.056ZM440.748 188.832C436.225 187.893 432.684 190.453 430.124 196.512C429.356 198.133 428.759 199.84 428.332 201.632C431.233 201.973 434.305 200.352 437.548 196.768C438.743 195.317 439.639 193.867 440.236 192.416C440.833 190.88 441.004 189.685 440.748 188.832Z" fill="#8587EE"/>
</g>
<path d="M219.829 30.9194H245.177C248.868 30.9194 252.067 31.3193 254.774 32.1191C257.481 32.9189 259.727 34.0776 261.511 35.5952C263.295 37.0923 264.618 38.9277 265.479 41.1016C266.361 43.2754 266.802 45.7261 266.802 48.4536C266.802 51.0171 266.372 53.3857 265.51 55.5596C264.649 57.7334 263.326 59.6201 261.542 61.2197C259.778 62.7988 257.543 64.0396 254.836 64.9419C252.129 65.8237 248.93 66.2646 245.238 66.2646L229.581 66.2339V79H219.829V30.9194ZM245.423 57.8052C247.269 57.8052 248.878 57.5898 250.252 57.1592C251.647 56.708 252.806 56.0825 253.729 55.2827C254.672 54.4624 255.369 53.478 255.82 52.3296C256.292 51.1606 256.528 49.8687 256.528 48.4536C256.528 45.603 255.595 43.3882 253.729 41.8091C251.883 40.2095 249.114 39.4097 245.423 39.4097H229.581V57.8052H245.423Z" fill="white"/>
<defs>
<filter id="filter0_d_2_25" x="183" y="0" width="118" height="118" filterUnits="userSpaceOnUse" color-interpolation-filters="sRGB">
<feFlood flood-opacity="0" result="BackgroundImageFix"/>
<feColorMatrix in="SourceAlpha" type="matrix" values="0 0 0 0 0 0 0 0 0 0 0 0 0 0 0 0 0 0 127 0" result="hardAlpha"/>
<feOffset dy="4"/>
<feGaussianBlur stdDeviation="4.5"/>
<feComposite in2="hardAlpha" operator="out"/>
<feColorMatrix type="matrix" values="0 0 0 0 0 0 0 0 0 0 0 0 0 0 0 0 0 0 0.25 0"/>
<feBlend mode="normal" in2="BackgroundImageFix" result="effect1_dropShadow_2_25"/>
<feBlend mode="normal" in="SourceGraphic" in2="effect1_dropShadow_2_25" result="shape"/>
</filter>
<filter id="filter1_d_2_25" x="0.160034" y="115.112" width="479.652" height="175.536" filterUnits="userSpaceOnUse" color-interpolation-filters="sRGB">
<feFlood flood-opacity="0" result="BackgroundImageFix"/>
<feColorMatrix in="SourceAlpha" type="matrix" values="0 0 0 0 0 0 0 0 0 0 0 0 0 0 0 0 0 0 127 0" result="hardAlpha"/>
<feOffset dy="4"/>
<feGaussianBlur stdDeviation="7.5"/>
<feComposite in2="hardAlpha" operator="out"/>
<feColorMatrix type="matrix" values="0 0 0 0 0.225215 0 0 0 0 0.468809 0 0 0 0 0.941667 0 0 0 0.3 0"/>
<feBlend mode="normal" in2="BackgroundImageFix" result="effect1_dropShadow_2_25"/>
<feBlend mode="normal" in="SourceGraphic" in2="effect1_dropShadow_2_25" result="shape"/>
</filter>
</defs>
</svg>
