<svg width="139" height="44" viewBox="0 0 139 44" fill="none" xmlns="http://www.w3.org/2000/svg">
<path d="M20.34 28.12C20.556 28.936 20.508 29.62 20.196 30.172C19.884 30.7 19.44 31.108 18.864 31.396C18.864 31.516 18.936 31.804 19.08 32.26C19.248 32.74 19.38 33.136 19.476 33.448C19.692 34.096 19.752 34.684 19.656 35.212C19.392 36.124 18.72 36.616 17.64 36.688C17.184 36.736 16.728 36.676 16.272 36.508C15.816 36.34 15.456 36.076 15.192 35.716C15.144 35.812 15.012 35.608 14.796 35.104C14.58 34.624 14.34 34.072 14.076 33.448L13.284 31.864C11.988 32.272 10.932 32.44 10.116 32.368C8.844 32.224 7.5 31.876 6.084 31.324C4.116 30.556 2.76 29.188 2.016 27.22C1.272 25.252 1.176 22.84 1.728 19.984C1.992 16.624 2.796 13.552 4.14 10.768C5.724 7.48 7.704 5.356 10.08 4.396C12.504 3.172 14.52 2.656 16.128 2.848L16.776 2.632C17.136 2.008 17.688 1.564 18.432 1.3C19.2 1.036 20.016 0.927999 20.88 0.975998C21.744 1.024 22.584 1.204 23.4 1.516C24.24 1.828 24.912 2.248 25.416 2.776C27.216 4.528 27.948 7.372 27.612 11.308C27.228 16.132 25.476 20.644 22.356 24.844C21.612 25.852 20.808 26.788 19.944 27.652L20.34 28.12ZM10.008 27.364C9.768 26.476 9.648 25.768 9.648 25.24C9.6 25.192 9.576 25.132 9.576 25.06V25.024C9.552 25 9.54 24.964 9.54 24.916H9.576C9.624 23.716 10.236 22.924 11.412 22.54C12.132 22.156 12.924 22 13.788 22.072C14.652 22.12 15.432 22.384 16.128 22.864C16.368 22.456 16.572 22.084 16.74 21.748L17.172 20.884C19.26 16.468 19.788 12.712 18.756 9.616C18.036 10.096 17.244 10.42 16.38 10.588C15.54 10.732 14.76 10.744 14.04 10.624C13.512 11.08 13.008 11.632 12.528 12.28C12.072 12.904 11.748 13.336 11.556 13.576C11.388 13.816 11.076 14.332 10.62 15.124C10.188 15.892 9.768 16.744 9.36 17.68C8.952 18.616 8.604 19.588 8.316 20.596C8.028 21.58 7.872 22.516 7.848 23.404C7.8 25.42 8.52 26.74 10.008 27.364ZM30.7308 15.196C31.4028 14.548 32.1468 14.176 32.9628 14.08C33.8028 13.96 34.5348 14.044 35.1588 14.332C35.8068 14.62 36.2748 15.088 36.5628 15.736C36.8748 16.36 36.8388 17.08 36.4548 17.896C35.6388 19.096 34.9908 20.392 34.5108 21.784C34.0308 23.176 33.5868 24.58 33.1788 25.996C35.3868 24.604 37.2348 22.528 38.7228 19.768C39.1548 18.952 39.6228 18.124 40.1268 17.284L40.6668 16.276L41.7468 14.548C41.8908 14.092 42.1428 13.804 42.5028 13.684C42.8628 13.54 43.2468 13.468 43.6548 13.468C44.0868 13.468 44.5188 13.48 44.9508 13.504C45.3828 13.504 45.7788 13.384 46.1388 13.144C46.4988 12.904 46.9188 12.82 47.3988 12.892C47.9028 12.94 48.3468 13.096 48.7308 13.36C49.1388 13.624 49.4388 13.948 49.6308 14.332C49.8468 14.692 49.8708 15.052 49.7028 15.412C48.6948 17.572 47.3148 21.592 45.5628 27.472C45.1548 28.792 44.7708 29.896 44.4108 30.784C43.8108 31.528 43.0548 32.032 42.1428 32.296C41.2308 32.56 40.3668 32.632 39.5508 32.512C38.7588 32.416 38.1228 32.14 37.6428 31.684C37.1628 31.252 37.0548 30.7 37.3188 30.028C36.6468 30.58 35.9508 31.084 35.2308 31.54C34.5108 31.996 33.6348 32.296 32.6028 32.44C31.5948 32.584 30.6228 32.536 29.6868 32.296C28.7508 32.08 27.9468 31.648 27.2748 31C26.6268 30.352 26.2788 29.488 26.2308 28.408C26.0868 24.616 27.5868 20.212 30.7308 15.196ZM52.6348 15.412C52.9468 14.62 53.6908 14.08 54.8668 13.792C55.9708 13.504 57.0028 13.54 57.9628 13.9C58.9468 14.284 59.3908 14.908 59.2948 15.772C59.0308 16.612 58.6948 17.644 58.2868 18.868C57.9028 20.068 57.5308 21.304 57.1708 22.576C56.2108 25.84 55.6588 28.144 55.5148 29.488C55.1548 31.648 54.5548 32.812 53.7148 32.98C53.4748 33.028 53.2468 33.064 53.0308 33.088C52.5028 33.112 52.1668 33.256 52.0228 33.52C51.8788 33.784 51.6388 33.976 51.3028 34.096C50.9668 34.24 50.5948 34.3 50.1868 34.276C49.8028 34.276 49.4068 34.18 48.9988 33.988C48.5908 33.82 48.2428 33.568 47.9548 33.232C47.2828 32.416 47.1508 31.324 47.5588 29.956C47.9428 27.34 48.9148 24.016 50.4748 19.984C51.2188 17.992 51.9388 16.468 52.6348 15.412ZM59.4388 10.012C58.2628 10.252 57.3028 10.18 56.5588 9.796C55.8388 9.412 55.4188 8.956 55.2988 8.428C55.1788 7.876 55.3468 7.312 55.8028 6.736C56.3308 6.016 57.1228 5.548 58.1788 5.332C58.6588 5.284 59.0068 5.26 59.2228 5.26C59.4388 5.26 59.7028 5.308 60.0148 5.404C60.8068 5.476 61.3228 5.824 61.5628 6.448C61.8988 6.976 61.9228 7.576 61.6348 8.248C61.3708 8.92 60.6388 9.508 59.4388 10.012ZM68.1252 16.276C69.3252 14.476 70.9932 13.396 73.1292 13.036C73.8252 12.916 74.6772 12.832 75.6852 12.784C76.7172 12.736 77.5932 12.964 78.3132 13.468C79.0572 13.972 79.6092 14.62 79.9692 15.412C80.5932 16.828 80.6892 18.568 80.2572 20.632C80.0172 21.76 79.7292 23.008 79.3932 24.376C79.0572 25.72 78.5532 27.052 77.8812 28.372C77.2092 29.692 76.3332 30.928 75.2532 32.08C74.1732 33.232 72.7692 34.144 71.0412 34.816C70.0092 35.224 69.0972 35.368 68.3052 35.248C67.5372 35.152 66.9612 34.996 66.5772 34.78C66.1932 34.564 65.9292 34.252 65.7852 33.844C65.3052 35.212 64.8492 36.592 64.4172 37.984C64.0092 39.4 63.4572 40.744 62.7612 42.016C62.2812 42.328 61.6932 42.556 60.9972 42.7C60.3012 42.868 59.6172 42.832 58.9452 42.592C58.2732 42.376 57.7932 41.968 57.5052 41.368C57.1932 40.792 57.0372 40.156 57.0372 39.46C57.0372 38.524 57.2652 37.384 57.7212 36.04C58.3932 34.048 58.9452 32.512 59.3772 31.432C59.7852 30.352 60.0492 29.656 60.1692 29.344C60.2892 29.008 60.4092 28.66 60.5292 28.3C61.0572 26.908 61.4412 25.78 61.6812 24.916C61.9452 24.028 62.1852 23.26 62.4012 22.612V22.576C62.6412 21.52 63.0132 20.404 63.5172 19.228C64.0452 18.028 64.4052 17.296 64.5972 17.032C65.0052 16.624 65.4252 16.372 65.8572 16.276C66.2892 16.18 66.7812 16.12 67.3332 16.096H67.4412L68.1252 16.276ZM70.8612 22.288C70.5732 22.792 70.0932 23.26 69.4212 23.692L69.0972 24.448C68.8572 25.072 68.6292 25.708 68.4132 26.356C68.1972 27.004 67.9572 27.64 67.6932 28.264C67.9332 28.504 68.1132 28.732 68.2332 28.948C69.5772 27.772 70.8012 26.224 71.9052 24.304C72.3372 23.512 72.6132 22.72 72.7332 21.928C72.8772 21.136 72.9132 20.632 72.8412 20.416C72.7692 20.2 72.6492 20.092 72.4812 20.092C72.3372 20.092 72.1812 20.14 72.0132 20.236C71.8692 20.308 71.7492 20.392 71.6532 20.488C71.5812 20.56 71.5932 20.56 71.6892 20.488C71.4252 20.8 71.2332 21.076 71.1132 21.316C70.9932 21.532 70.9092 21.856 70.8612 22.288ZM97.1013 15.556L97.2453 15.592C97.2933 15.592 97.3173 15.604 97.3173 15.628C97.9413 15.388 98.4573 15.568 98.8653 16.168C99.1293 16.576 99.3333 17.2 99.4773 18.04C99.5253 19.192 99.4053 20.788 99.1173 22.828C98.5653 26.956 98.2653 29.416 98.2173 30.208C98.2653 31.048 97.7493 31.624 96.6693 31.936C95.7333 32.224 94.7973 32.212 93.8613 31.9C92.8773 31.564 92.4693 31.048 92.6373 30.352C92.4453 30.712 92.2533 30.964 92.0613 31.108C91.8693 31.276 91.4853 31.492 90.9093 31.756C90.3573 32.044 89.5653 32.272 88.5333 32.44C87.5013 32.632 86.4693 32.68 85.4373 32.584C84.4053 32.512 83.4573 32.26 82.5933 31.828C81.7533 31.42 81.1893 30.772 80.9013 29.884C80.3493 28.156 80.4213 25.96 81.1173 23.296C81.5973 21.544 82.4613 19.996 83.7093 18.652C85.1493 17.116 86.7813 15.844 88.6053 14.836C89.9733 14.092 91.2933 13.648 92.5653 13.504C92.9973 13.456 93.3693 13.468 93.6813 13.54C94.0173 13.612 94.3653 13.684 94.7253 13.756C95.1093 13.828 95.4693 13.936 95.8053 14.08C96.6693 14.44 97.1013 14.932 97.1013 15.556ZM90.4413 25.096C90.6093 24.76 90.7413 24.34 90.8373 23.836C90.9573 23.332 91.1133 22.78 91.3053 22.18C89.3613 22.972 87.8733 23.944 86.8413 25.096C85.7133 26.368 85.7853 27.244 87.0573 27.724C88.1613 28.012 88.9653 27.832 89.4693 27.184C89.6853 26.896 89.8773 26.536 90.0453 26.104C90.2133 25.672 90.4173 25.228 90.6573 24.772C90.5853 24.892 90.5133 25 90.4413 25.096ZM101.21 19.984C101.234 19 101.162 18.196 100.994 17.572C100.826 16.948 100.826 16.432 100.994 16.024C101.186 15.592 101.474 15.292 101.858 15.124C102.266 14.956 102.734 14.908 103.262 14.98C103.814 15.028 104.354 15.184 104.882 15.448C106.154 16.024 107.042 16.84 107.546 17.896C107.666 18.424 107.618 19.084 107.402 19.876C107.21 20.644 106.982 21.448 106.718 22.288C106.454 23.104 106.202 23.908 105.962 24.7C105.722 25.468 105.626 26.116 105.674 26.644C106.298 26.26 106.838 25.684 107.294 24.916C107.774 24.148 108.206 23.332 108.59 22.468C108.998 21.58 109.37 20.704 109.706 19.84C110.066 18.976 110.402 18.292 110.714 17.788C111.05 17.284 111.314 16.888 111.506 16.6C111.698 16.288 111.89 16.012 112.082 15.772C112.394 15.364 112.802 14.968 113.306 14.584C113.45 14.464 113.882 14.488 114.602 14.656C115.346 14.8 115.886 14.908 116.222 14.98C116.582 15.028 116.822 15.004 116.942 14.908L117.446 14.548C118.118 14.212 118.91 14.224 119.822 14.584C120.71 14.968 121.178 15.556 121.226 16.348C121.202 16.372 121.19 16.42 121.19 16.492L121.298 16.528L121.046 16.744C120.878 17.056 120.746 17.272 120.65 17.392C120.578 17.488 120.41 17.644 120.146 17.86C118.514 19.612 116.642 22.864 114.53 27.616C114.002 28.792 113.522 29.848 113.09 30.784C113.738 31.192 114.23 31.72 114.566 32.368C114.902 33.016 114.902 33.724 114.566 34.492C112.574 36.076 111.458 37.564 111.218 38.956C111.098 39.82 110.942 40.432 110.75 40.792C110.582 41.152 110.306 41.5 109.922 41.836C108.626 42.796 107.102 42.556 105.35 41.116C104.102 39.868 104.042 38.308 105.17 36.436C105.458 35.932 105.734 35.404 105.998 34.852C106.382 34.036 106.994 32.824 107.834 31.216C105.77 32.416 103.874 32.392 102.146 31.144C100.922 30.208 100.49 28.084 100.85 24.772C101.09 22.564 101.21 20.968 101.21 19.984ZM137.401 5.044C137.497 5.332 137.605 5.536 137.725 5.656C137.845 5.752 137.929 5.824 137.977 5.872C138.097 5.992 138.037 6.208 137.797 6.52C137.581 6.952 137.281 7.456 136.897 8.032C136.201 9.064 135.757 9.82 135.565 10.3C134.581 12.268 133.813 14.08 133.261 15.736C132.709 17.368 132.241 18.844 131.857 20.164C131.473 21.484 131.101 22.648 130.741 23.656C130.309 24.832 129.805 25.708 129.229 26.284C128.941 26.764 128.425 27.088 127.681 27.256C126.937 27.424 126.181 27.46 125.413 27.364C124.645 27.244 123.985 26.992 123.433 26.608C122.905 26.224 122.713 25.72 122.857 25.096C123.121 22.84 123.517 20.944 124.045 19.408C124.597 17.872 125.065 16.6 125.449 15.592C125.857 14.584 126.205 13.684 126.493 12.892C126.781 12.076 127.045 11.38 127.285 10.804C127.549 10.204 127.849 9.58 128.185 8.932C128.521 8.26 128.881 7.588 129.265 6.916C129.673 6.22 130.081 5.584 130.489 5.008C131.425 3.688 132.217 2.908 132.865 2.668C133.513 2.404 134.161 2.248 134.809 2.2C135.481 2.152 136.057 2.224 136.537 2.416C137.041 2.608 137.389 2.92 137.581 3.352C137.773 3.784 137.713 4.348 137.401 5.044ZM128.797 32.188C128.533 33.172 127.981 33.904 127.141 34.384C126.325 34.888 125.449 35.152 124.513 35.176C123.577 35.224 122.701 35.044 121.885 34.636C121.093 34.252 120.601 33.64 120.409 32.8C120.193 31.984 120.313 31.288 120.769 30.712C121.249 30.112 121.813 29.728 122.461 29.56C123.109 29.368 123.865 29.236 124.729 29.164C125.617 29.092 126.421 29.14 127.141 29.308C127.861 29.476 128.413 29.788 128.797 30.244C129.181 30.7 129.181 31.348 128.797 32.188Z" fill="#8317D1"/>
</svg>
