<svg width="141" height="157" viewBox="0 0 141 157" fill="none" xmlns="http://www.w3.org/2000/svg">
<circle cx="70" cy="68" r="50" fill="#8587EE"/>
<path d="M47.8291 43.9194H73.1768C76.8682 43.9194 80.0674 44.3193 82.7744 45.1191C85.4814 45.9189 87.7271 47.0776 89.5112 48.5952C91.2954 50.0923 92.6182 51.9277 93.4795 54.1016C94.3613 56.2754 94.8022 58.7261 94.8022 61.4536C94.8022 64.0171 94.3716 66.3857 93.5103 68.5596C92.6489 70.7334 91.3262 72.6201 89.542 74.2197C87.7783 75.7988 85.543 77.0396 82.8359 77.9419C80.1289 78.8237 76.9297 79.2646 73.2383 79.2646L57.5806 79.2339V92H47.8291V43.9194ZM73.4229 70.8052C75.2686 70.8052 76.8784 70.5898 78.2524 70.1592C79.647 69.708 80.8057 69.0825 81.7285 68.2827C82.6719 67.4624 83.3691 66.478 83.8203 65.3296C84.292 64.1606 84.5278 62.8687 84.5278 61.4536C84.5278 58.603 83.5947 56.3882 81.7285 54.8091C79.8828 53.2095 77.1143 52.4097 73.4229 52.4097H57.5806V70.8052H73.4229Z" fill="white"/>
<path d="M26.8428 122.026H33.6826C34.6787 122.026 35.542 122.134 36.2725 122.35C37.0029 122.565 37.6089 122.878 38.0903 123.288C38.5718 123.692 38.9287 124.187 39.1611 124.773C39.3991 125.36 39.5181 126.021 39.5181 126.757C39.5181 127.449 39.4019 128.088 39.1694 128.675C38.937 129.261 38.5801 129.771 38.0986 130.202C37.6227 130.628 37.0195 130.963 36.2891 131.207C35.5586 131.444 34.6953 131.563 33.6992 131.563L29.4741 131.555V135H26.8428V122.026ZM33.749 129.281C34.2471 129.281 34.6815 129.223 35.0522 129.106C35.4285 128.985 35.7412 128.816 35.9902 128.6C36.2448 128.379 36.4329 128.113 36.5547 127.803C36.682 127.488 36.7456 127.139 36.7456 126.757C36.7456 125.988 36.4938 125.39 35.9902 124.964C35.4922 124.533 34.7451 124.317 33.749 124.317H29.4741V129.281H33.749ZM41.6265 131.912C41.6265 131.442 41.7288 131.013 41.9336 130.625C42.1383 130.238 42.4455 129.906 42.855 129.629C43.2645 129.347 43.7736 129.131 44.3823 128.982C44.9966 128.827 45.7104 128.75 46.5239 128.75C47.1271 128.75 47.7607 128.794 48.4248 128.882C49.0944 128.971 49.7834 129.106 50.4917 129.289C50.464 128.979 50.37 128.694 50.2095 128.434C50.049 128.168 49.8249 127.942 49.5371 127.753C49.2549 127.56 48.9118 127.41 48.5078 127.305C48.1094 127.2 47.6556 127.147 47.1465 127.147C46.8698 127.147 46.5654 127.164 46.2334 127.197C45.9014 127.23 45.5583 127.28 45.2041 127.347C44.8499 127.413 44.4985 127.496 44.1499 127.596C43.8068 127.695 43.4858 127.814 43.187 127.953L42.4399 125.936C42.8107 125.803 43.2064 125.681 43.627 125.57C44.0531 125.46 44.4875 125.366 44.9302 125.288C45.3729 125.205 45.8156 125.141 46.2583 125.097C46.701 125.053 47.1299 125.031 47.5449 125.031C49.3766 125.031 50.738 125.498 51.6289 126.434C52.5199 127.369 52.9653 128.802 52.9653 130.733V135H50.5083V134.079C50.2537 134.228 49.9743 134.369 49.6699 134.502C49.3711 134.635 49.0446 134.751 48.6904 134.851C48.3363 134.95 47.9544 135.028 47.5449 135.083C47.141 135.144 46.7121 135.174 46.2583 135.174C45.4946 135.174 44.8223 135.091 44.2412 134.925C43.6657 134.759 43.1842 134.53 42.7969 134.236C42.4095 133.943 42.1162 133.6 41.917 133.207C41.7233 132.809 41.6265 132.377 41.6265 131.912ZM44.2163 131.829C44.2163 131.99 44.2578 132.145 44.3408 132.294C44.4238 132.438 44.5566 132.568 44.7393 132.684C44.9219 132.795 45.1543 132.886 45.4365 132.958C45.7243 133.024 46.0701 133.058 46.4741 133.058C46.9058 133.058 47.3236 133.019 47.7275 132.941C48.1315 132.864 48.5078 132.762 48.8564 132.634C49.2051 132.507 49.5205 132.36 49.8027 132.194C50.085 132.028 50.3201 131.857 50.5083 131.68V131.248C50.132 131.143 49.7585 131.054 49.3877 130.982C49.0225 130.91 48.6711 130.855 48.3335 130.816C48.0015 130.772 47.686 130.742 47.3872 130.725C47.0939 130.708 46.8366 130.7 46.6152 130.7C46.1559 130.7 45.7741 130.731 45.4697 130.792C45.1654 130.852 44.9191 130.935 44.731 131.041C44.5428 131.14 44.41 131.259 44.3325 131.397C44.255 131.536 44.2163 131.68 44.2163 131.829ZM57.3896 136.229C57.6442 136.395 57.9209 136.541 58.2197 136.668C58.5186 136.796 58.8285 136.901 59.1494 136.984C59.4759 137.067 59.8079 137.128 60.1455 137.167C60.4831 137.211 60.8179 137.233 61.1499 137.233C62.2788 137.233 63.1476 136.989 63.7563 136.502C64.3706 136.021 64.6777 135.296 64.6777 134.328V133.996C64.4619 134.145 64.2184 134.283 63.9473 134.411C63.6816 134.532 63.3939 134.638 63.084 134.726C62.7796 134.815 62.4559 134.884 62.1128 134.934C61.7752 134.978 61.4321 135 61.0835 135C60.3364 135 59.6668 134.892 59.0747 134.676C58.4881 134.455 57.9901 134.134 57.5806 133.713C57.1766 133.287 56.8667 132.764 56.6509 132.145C56.4351 131.525 56.3271 130.816 56.3271 130.02V125.205H58.7759V129.339C58.7759 130.523 59 131.397 59.4482 131.962C59.902 132.521 60.6159 132.8 61.5898 132.8C62.276 132.8 62.882 132.681 63.4077 132.443C63.939 132.2 64.3623 131.89 64.6777 131.514V125.205H67.1348V133.879C67.1348 134.815 67.002 135.625 66.7363 136.312C66.4707 137.003 66.0833 137.576 65.5742 138.03C65.0706 138.484 64.4508 138.821 63.7148 139.042C62.9788 139.269 62.1432 139.383 61.208 139.383C60.2949 139.383 59.4427 139.286 58.6514 139.092C57.86 138.899 57.1351 138.636 56.4766 138.304L57.3896 136.229Z" fill="#F75467"/>
<path d="M69.8574 128.476C69.8574 127.496 70.0373 126.6 70.397 125.786C70.7567 124.973 71.2603 124.275 71.9077 123.694C72.5607 123.108 73.341 122.654 74.2485 122.333C75.1616 122.012 76.1715 121.852 77.2783 121.852C78.3796 121.852 79.3867 122.012 80.2998 122.333C81.2129 122.654 81.9932 123.108 82.6406 123.694C83.2936 124.275 83.8 124.973 84.1597 125.786C84.5194 126.6 84.6992 127.496 84.6992 128.476C84.6992 129.461 84.5194 130.365 84.1597 131.19C83.8 132.009 83.2936 132.715 82.6406 133.307C81.9932 133.899 81.2129 134.361 80.2998 134.693C79.3867 135.019 78.3796 135.183 77.2783 135.183C76.1715 135.183 75.1616 135.019 74.2485 134.693C73.341 134.361 72.5607 133.899 71.9077 133.307C71.2603 132.715 70.7567 132.009 70.397 131.19C70.0373 130.365 69.8574 129.461 69.8574 128.476ZM72.4888 128.476C72.4888 129.145 72.6077 129.748 72.8457 130.285C73.0892 130.822 73.424 131.281 73.8501 131.663C74.2817 132.039 74.7881 132.33 75.3691 132.535C75.9557 132.739 76.5921 132.842 77.2783 132.842C77.9645 132.842 78.5981 132.739 79.1792 132.535C79.7658 132.33 80.2721 132.039 80.6982 131.663C81.1243 131.281 81.4591 130.822 81.7026 130.285C81.9461 129.748 82.0679 129.145 82.0679 128.476C82.0679 127.806 81.9461 127.206 81.7026 126.674C81.4591 126.143 81.1243 125.695 80.6982 125.33C80.2721 124.959 79.7658 124.677 79.1792 124.483C78.5981 124.289 77.9645 124.192 77.2783 124.192C76.5921 124.192 75.9557 124.289 75.3691 124.483C74.7881 124.677 74.2817 124.959 73.8501 125.33C73.424 125.695 73.0892 126.143 72.8457 126.674C72.6077 127.206 72.4888 127.806 72.4888 128.476ZM87.314 125.205H89.771V126.035C90.424 125.664 91.0465 125.404 91.6387 125.255C92.2363 125.105 92.8201 125.031 93.3901 125.031C94.1372 125.031 94.8289 125.141 95.4653 125.363C96.1017 125.579 96.6523 125.902 97.1172 126.334C97.582 126.766 97.9445 127.305 98.2046 127.953C98.4702 128.595 98.603 129.339 98.603 130.186V135H96.1543V130.584C96.1543 130.047 96.0768 129.569 95.9219 129.148C95.7725 128.722 95.5539 128.365 95.2661 128.077C94.9839 127.784 94.638 127.562 94.2285 127.413C93.8245 127.258 93.3708 127.181 92.8672 127.181C92.6016 127.181 92.3276 127.208 92.0454 127.264C91.7687 127.319 91.4948 127.399 91.2236 127.504C90.958 127.604 90.7007 127.731 90.4517 127.886C90.2026 128.036 89.9757 128.207 89.771 128.401V135H87.314V125.205ZM101.16 130.069C101.16 129.405 101.295 128.772 101.566 128.168C101.838 127.56 102.228 127.023 102.737 126.558C103.246 126.093 103.868 125.722 104.604 125.446C105.346 125.169 106.187 125.031 107.128 125.031C108.063 125.031 108.904 125.172 109.651 125.454C110.404 125.731 111.04 126.113 111.561 126.6C112.086 127.087 112.487 127.659 112.764 128.318C113.046 128.976 113.188 129.682 113.188 130.435C113.188 130.529 113.185 130.631 113.179 130.742C113.179 130.847 113.174 130.944 113.163 131.032H103.899C104.004 131.326 104.173 131.594 104.405 131.837C104.643 132.081 104.939 132.291 105.293 132.468C105.648 132.645 106.057 132.784 106.522 132.883C106.987 132.977 107.501 133.024 108.066 133.024C108.63 133.024 109.192 132.966 109.751 132.85C110.31 132.728 110.844 132.576 111.353 132.394L112.183 134.27C111.862 134.419 111.536 134.552 111.204 134.668C110.877 134.779 110.534 134.873 110.174 134.95C109.82 135.022 109.447 135.077 109.054 135.116C108.666 135.155 108.257 135.174 107.825 135.174C106.724 135.174 105.758 135.042 104.928 134.776C104.098 134.51 103.404 134.148 102.845 133.688C102.286 133.229 101.865 132.69 101.583 132.07C101.301 131.45 101.16 130.783 101.16 130.069ZM110.581 129.115C110.493 128.844 110.354 128.592 110.166 128.359C109.983 128.121 109.754 127.917 109.477 127.745C109.2 127.568 108.879 127.43 108.514 127.33C108.149 127.23 107.748 127.181 107.311 127.181C106.846 127.181 106.422 127.233 106.041 127.338C105.659 127.444 105.324 127.585 105.036 127.762C104.748 127.939 104.508 128.144 104.314 128.376C104.126 128.608 103.987 128.855 103.899 129.115H110.581Z" fill="#8587EE"/>
</svg>
