<svg width="501" height="121" viewBox="0 0 501 121" fill="none" xmlns="http://www.w3.org/2000/svg">
<g filter="url(#filter0_d_1_3)">
<path d="M44.592 109.016C38.1067 109.016 33.1573 107.565 29.744 104.664C26.3307 101.763 24.624 97.6667 24.624 92.376C24.624 91.608 24.6667 90.7973 24.752 89.944C24.9227 89.0907 25.0507 88.2373 25.136 87.384C17.6267 86.0187 11.6107 83.032 7.088 78.424C2.65067 73.7307 0.432 67.1173 0.432 58.584C0.432 54.744 0.944 50.52 1.968 45.912C4.18667 35.5867 7.472 27.3093 11.824 21.08C16.2613 14.8507 21.936 10.328 28.848 7.51199C35.8453 4.69599 44.2933 3.28799 54.192 3.28799C65.1147 3.28799 73.7333 5.72 80.048 10.584C86.448 15.448 89.648 23.0427 89.648 33.368C89.648 35.2453 89.52 37.2507 89.264 39.384C89.0933 41.432 88.752 43.608 88.24 45.912C85.3387 59.224 80.56 69.1653 73.904 75.736C67.3333 82.3067 58.288 86.2747 46.768 87.64C46.6827 87.9813 46.64 88.28 46.64 88.536C46.64 88.792 46.64 89.048 46.64 89.304C46.64 90.6693 47.0667 91.5653 47.92 91.992C48.8587 92.504 50.3947 92.76 52.528 92.76C55.4293 92.76 58.3733 92.2907 61.36 91.352L58.032 107.352C56.4107 107.779 54.3627 108.163 51.888 108.504C49.4987 108.845 47.0667 109.016 44.592 109.016ZM41.008 64.984C46.2987 64.984 50.4373 63.4907 53.424 60.504C56.4107 57.5173 58.6293 52.6533 60.08 45.912C60.848 42.328 61.232 39.3413 61.232 36.952C61.232 33.1973 60.2933 30.552 58.416 29.016C56.5387 27.48 53.4667 26.712 49.2 26.712C43.824 26.712 39.6427 28.1627 36.656 31.064C33.6693 33.88 31.4507 38.8293 30 45.912C29.232 49.3253 28.848 52.2267 28.848 54.616C28.848 58.2853 29.7867 60.9307 31.664 62.552C33.6267 64.1733 36.7413 64.984 41.008 64.984ZM108.703 88.28C103.156 88.28 98.7617 86.7867 95.519 83.8C92.2763 80.728 90.655 76.4613 90.655 71C90.655 70.0613 90.6977 69.08 90.783 68.056C90.8683 66.9467 91.039 65.8373 91.295 64.728L99.487 26.328H127.007L119.455 62.04C119.37 62.3813 119.284 62.7653 119.199 63.192C119.199 63.5333 119.199 63.832 119.199 64.088C119.199 65.5387 119.626 66.5627 120.479 67.16C121.418 67.7573 122.698 68.056 124.319 68.056C126.026 68.056 127.647 67.7573 129.183 67.16C130.719 66.4773 131.999 65.624 133.023 64.6L141.087 26.328H168.607L155.807 87H129.951L130.079 83.032C127.434 84.568 124.276 85.848 120.607 86.872C116.938 87.8107 112.97 88.28 108.703 88.28ZM184.89 19.8L188.986 0.471992H218.554L214.458 19.8H184.89ZM172.73 87L181.306 46.296H172.73L179.258 26.328H213.05L200.25 87H172.73ZM204.945 113.624L223.377 26.328H247.185L247.569 30.808C250.3 29.016 253.201 27.608 256.273 26.584C259.43 25.56 262.844 25.048 266.513 25.048C273.425 25.048 278.972 26.9253 283.153 30.68C287.334 34.3493 289.425 39.8533 289.425 47.192C289.425 50.0933 289.041 53.2933 288.273 56.792C285.969 67.6293 281.916 75.608 276.113 80.728C270.31 85.7627 262.588 88.28 252.945 88.28C250.385 88.28 247.697 88.024 244.881 87.512C242.15 87 239.974 86.3173 238.353 85.464L232.337 113.624H204.945ZM249.233 68.44C252.134 68.44 254.481 67.544 256.273 65.752C258.065 63.8747 259.43 60.7173 260.369 56.28C260.54 55.256 260.668 54.3173 260.753 53.464C260.924 52.5253 261.009 51.7147 261.009 51.032C261.009 48.728 260.454 47.1493 259.345 46.296C258.236 45.3573 256.572 44.888 254.353 44.888C252.732 44.888 251.238 45.144 249.873 45.656C248.508 46.168 247.356 46.8507 246.417 47.704L242.449 66.008C243.9 67.6293 246.161 68.44 249.233 68.44ZM314.406 88.28C307.579 88.28 302.161 86.4453 298.15 82.776C294.139 79.1067 292.134 73.9013 292.134 67.16C292.134 65.88 292.177 64.5573 292.262 63.192C292.433 61.8267 292.689 60.4613 293.03 59.096C295.334 47.832 299.771 39.3413 306.342 33.624C312.998 27.9067 320.721 25.048 329.51 25.048C332.923 25.048 335.739 25.5173 337.958 26.456C340.177 27.3093 341.883 28.3333 343.078 29.528L343.718 26.328H371.238L358.438 87H334.63L334.246 82.648C331.515 84.44 328.571 85.848 325.414 86.872C322.257 87.8107 318.587 88.28 314.406 88.28ZM327.334 68.568C329.126 68.568 330.705 68.312 332.07 67.8C333.435 67.288 334.545 66.6053 335.398 65.752L339.238 47.448C338.641 46.5947 337.83 45.9547 336.806 45.528C335.867 45.1013 334.63 44.888 333.094 44.888C329.937 44.888 327.377 46.1253 325.414 48.6C323.451 50.9893 322.001 54.488 321.062 59.096C320.977 59.864 320.849 60.5893 320.678 61.272C320.593 61.8693 320.55 62.424 320.55 62.936C320.55 65.0693 321.147 66.5627 322.342 67.416C323.537 68.184 325.201 68.568 327.334 68.568ZM389.31 109.528C387.945 109.528 386.067 109.443 383.678 109.272C381.289 109.187 378.942 109.016 376.638 108.76C374.419 108.589 372.755 108.419 371.646 108.248L375.614 89.688C377.321 90.1147 379.539 90.4987 382.27 90.84C385.001 91.1813 387.39 91.352 389.438 91.352C396.777 91.352 402.11 90.6693 405.438 89.304C408.766 88.024 410.601 86.232 410.942 83.928L411.326 81.752C408.681 83.288 405.609 84.568 402.11 85.592C398.611 86.5307 394.729 87 390.462 87C384.745 87 380.265 85.5493 377.022 82.648C373.865 79.6613 372.286 75.4373 372.286 69.976C372.286 67.928 372.542 65.752 373.054 63.448L380.862 26.328H408.382L401.086 60.76C401.001 61.1867 400.915 61.6133 400.83 62.04C400.83 62.3813 400.83 62.7653 400.83 63.192C400.83 64.5573 401.257 65.496 402.11 66.008C402.963 66.52 404.243 66.776 405.95 66.776C407.401 66.776 408.937 66.4347 410.558 65.752C412.179 65.0693 413.545 64.2587 414.654 63.32L422.462 26.328H449.982L439.102 77.528C437.737 84.0133 435.262 89.6453 431.678 94.424C428.094 99.2027 422.889 102.915 416.062 105.56C409.321 108.205 400.403 109.528 389.31 109.528ZM451.292 62.552L458.076 27.224L462.812 4.56799H490.332L485.596 27.224L477.148 62.552H451.292ZM444.892 87L448.86 67.8H477.404L473.436 87H444.892Z" fill="#341BCF"/>
</g>
<defs>
<filter id="filter0_d_1_3" x="0.432007" y="0.471985" width="499.9" height="120.152" filterUnits="userSpaceOnUse" color-interpolation-filters="sRGB">
<feFlood flood-opacity="0" result="BackgroundImageFix"/>
<feColorMatrix in="SourceAlpha" type="matrix" values="0 0 0 0 0 0 0 0 0 0 0 0 0 0 0 0 0 0 127 0" result="hardAlpha"/>
<feOffset dx="7" dy="4"/>
<feGaussianBlur stdDeviation="1.5"/>
<feComposite in2="hardAlpha" operator="out"/>
<feColorMatrix type="matrix" values="0 0 0 0 0 0 0 0 0 0 0 0 0 0 0 0 0 0 0.25 0"/>
<feBlend mode="normal" in2="BackgroundImageFix" result="effect1_dropShadow_1_3"/>
<feBlend mode="normal" in="SourceGraphic" in2="effect1_dropShadow_1_3" result="shape"/>
</filter>
</defs>
</svg>
