<svg width="519" height="305" viewBox="0 0 519 305" fill="none" xmlns="http://www.w3.org/2000/svg">
<g filter="url(#filter0_i_4_12)">
<path d="M519 152.5C519 132.473 514.9 112.643 506.935 94.1408C498.97 75.6386 487.295 58.8271 472.576 44.6662C457.858 30.5053 440.385 19.2722 421.155 11.6084C401.925 3.94453 381.315 -8.7539e-07 360.5 0C339.685 8.7539e-07 319.075 3.94453 299.845 11.6084C280.615 19.2722 263.142 30.5053 248.424 44.6662C233.705 58.8272 222.03 75.6386 214.065 94.1408C206.1 112.643 202 132.473 202 152.5L360.5 152.5H519Z" fill="white" fill-opacity="0.06"/>
</g>
<g filter="url(#filter1_d_4_12)">
<path d="M46.592 174.016C40.1067 174.016 35.1573 172.565 31.744 169.664C28.3307 166.763 26.624 162.667 26.624 157.376C26.624 156.608 26.6667 155.797 26.752 154.944C26.9227 154.091 27.0507 153.237 27.136 152.384C19.6267 151.019 13.6107 148.032 9.088 143.424C4.65067 138.731 2.432 132.117 2.432 123.584C2.432 119.744 2.944 115.52 3.968 110.912C6.18667 100.587 9.472 92.3093 13.824 86.08C18.2613 79.8507 23.936 75.328 30.848 72.512C37.8453 69.696 46.2933 68.288 56.192 68.288C67.1147 68.288 75.7333 70.72 82.048 75.584C88.448 80.448 91.648 88.0427 91.648 98.368C91.648 100.245 91.52 102.251 91.264 104.384C91.0933 106.432 90.752 108.608 90.24 110.912C87.3387 124.224 82.56 134.165 75.904 140.736C69.3333 147.307 60.288 151.275 48.768 152.64C48.6827 152.981 48.64 153.28 48.64 153.536C48.64 153.792 48.64 154.048 48.64 154.304C48.64 155.669 49.0667 156.565 49.92 156.992C50.8587 157.504 52.3947 157.76 54.528 157.76C57.4293 157.76 60.3733 157.291 63.36 156.352L60.032 172.352C58.4107 172.779 56.3627 173.163 53.888 173.504C51.4987 173.845 49.0667 174.016 46.592 174.016ZM43.008 129.984C48.2987 129.984 52.4373 128.491 55.424 125.504C58.4107 122.517 60.6293 117.653 62.08 110.912C62.848 107.328 63.232 104.341 63.232 101.952C63.232 98.1973 62.2933 95.552 60.416 94.016C58.5387 92.48 55.4667 91.712 51.2 91.712C45.824 91.712 41.6427 93.1627 38.656 96.064C35.6693 98.88 33.4507 103.829 32 110.912C31.232 114.325 30.848 117.227 30.848 119.616C30.848 123.285 31.7867 125.931 33.664 127.552C35.6267 129.173 38.7413 129.984 43.008 129.984ZM110.703 153.28C105.156 153.28 100.762 151.787 97.519 148.8C94.2763 145.728 92.655 141.461 92.655 136C92.655 135.061 92.6977 134.08 92.783 133.056C92.8683 131.947 93.039 130.837 93.295 129.728L101.487 91.328H129.007L121.455 127.04C121.37 127.381 121.284 127.765 121.199 128.192C121.199 128.533 121.199 128.832 121.199 129.088C121.199 130.539 121.626 131.563 122.479 132.16C123.418 132.757 124.698 133.056 126.319 133.056C128.026 133.056 129.647 132.757 131.183 132.16C132.719 131.477 133.999 130.624 135.023 129.6L143.087 91.328H170.607L157.807 152H131.951L132.079 148.032C129.434 149.568 126.276 150.848 122.607 151.872C118.938 152.811 114.97 153.28 110.703 153.28ZM186.89 84.8L190.986 65.472H220.554L216.458 84.8H186.89ZM174.73 152L183.306 111.296H174.73L181.258 91.328H215.05L202.25 152H174.73ZM206.945 178.624L225.377 91.328H249.185L249.569 95.808C252.3 94.016 255.201 92.608 258.273 91.584C261.43 90.56 264.844 90.048 268.513 90.048C275.425 90.048 280.972 91.9253 285.153 95.68C289.334 99.3493 291.425 104.853 291.425 112.192C291.425 115.093 291.041 118.293 290.273 121.792C287.969 132.629 283.916 140.608 278.113 145.728C272.31 150.763 264.588 153.28 254.945 153.28C252.385 153.28 249.697 153.024 246.881 152.512C244.15 152 241.974 151.317 240.353 150.464L234.337 178.624H206.945ZM251.233 133.44C254.134 133.44 256.481 132.544 258.273 130.752C260.065 128.875 261.43 125.717 262.369 121.28C262.54 120.256 262.668 119.317 262.753 118.464C262.924 117.525 263.009 116.715 263.009 116.032C263.009 113.728 262.454 112.149 261.345 111.296C260.236 110.357 258.572 109.888 256.353 109.888C254.732 109.888 253.238 110.144 251.873 110.656C250.508 111.168 249.356 111.851 248.417 112.704L244.449 131.008C245.9 132.629 248.161 133.44 251.233 133.44ZM316.406 153.28C309.579 153.28 304.161 151.445 300.15 147.776C296.139 144.107 294.134 138.901 294.134 132.16C294.134 130.88 294.177 129.557 294.262 128.192C294.433 126.827 294.689 125.461 295.03 124.096C297.334 112.832 301.771 104.341 308.342 98.624C314.998 92.9067 322.721 90.048 331.51 90.048C334.923 90.048 337.739 90.5173 339.958 91.456C342.177 92.3093 343.883 93.3333 345.078 94.528L345.718 91.328H373.238L360.438 152H336.63L336.246 147.648C333.515 149.44 330.571 150.848 327.414 151.872C324.257 152.811 320.587 153.28 316.406 153.28ZM329.334 133.568C331.126 133.568 332.705 133.312 334.07 132.8C335.435 132.288 336.545 131.605 337.398 130.752L341.238 112.448C340.641 111.595 339.83 110.955 338.806 110.528C337.867 110.101 336.63 109.888 335.094 109.888C331.937 109.888 329.377 111.125 327.414 113.6C325.451 115.989 324.001 119.488 323.062 124.096C322.977 124.864 322.849 125.589 322.678 126.272C322.593 126.869 322.55 127.424 322.55 127.936C322.55 130.069 323.147 131.563 324.342 132.416C325.537 133.184 327.201 133.568 329.334 133.568ZM391.31 174.528C389.945 174.528 388.067 174.443 385.678 174.272C383.289 174.187 380.942 174.016 378.638 173.76C376.419 173.589 374.755 173.419 373.646 173.248L377.614 154.688C379.321 155.115 381.539 155.499 384.27 155.84C387.001 156.181 389.39 156.352 391.438 156.352C398.777 156.352 404.11 155.669 407.438 154.304C410.766 153.024 412.601 151.232 412.942 148.928L413.326 146.752C410.681 148.288 407.609 149.568 404.11 150.592C400.611 151.531 396.729 152 392.462 152C386.745 152 382.265 150.549 379.022 147.648C375.865 144.661 374.286 140.437 374.286 134.976C374.286 132.928 374.542 130.752 375.054 128.448L382.862 91.328H410.382L403.086 125.76C403.001 126.187 402.915 126.613 402.83 127.04C402.83 127.381 402.83 127.765 402.83 128.192C402.83 129.557 403.257 130.496 404.11 131.008C404.963 131.52 406.243 131.776 407.95 131.776C409.401 131.776 410.937 131.435 412.558 130.752C414.179 130.069 415.545 129.259 416.654 128.32L424.462 91.328H451.982L441.102 142.528C439.737 149.013 437.262 154.645 433.678 159.424C430.094 164.203 424.889 167.915 418.062 170.56C411.321 173.205 402.403 174.528 391.31 174.528ZM453.292 127.552L460.076 92.224L464.812 69.568H492.332L487.596 92.224L479.148 127.552H453.292ZM446.892 152L450.86 132.8H479.404L475.436 152H446.892Z" fill="#341BCF" fill-opacity="0.92" shape-rendering="crispEdges"/>
</g>
<defs>
<filter id="filter0_i_4_12" x="202" y="0" width="317" height="156.5" filterUnits="userSpaceOnUse" color-interpolation-filters="sRGB">
<feFlood flood-opacity="0" result="BackgroundImageFix"/>
<feBlend mode="normal" in="SourceGraphic" in2="BackgroundImageFix" result="shape"/>
<feColorMatrix in="SourceAlpha" type="matrix" values="0 0 0 0 0 0 0 0 0 0 0 0 0 0 0 0 0 0 127 0" result="hardAlpha"/>
<feOffset dy="4"/>
<feGaussianBlur stdDeviation="2"/>
<feComposite in2="hardAlpha" operator="arithmetic" k2="-1" k3="1"/>
<feColorMatrix type="matrix" values="0 0 0 0 0 0 0 0 0 0 0 0 0 0 0 0 0 0 0.25 0"/>
<feBlend mode="normal" in2="shape" result="effect1_innerShadow_4_12"/>
</filter>
<filter id="filter1_d_4_12" x="2.43201" y="65.472" width="499.9" height="120.152" filterUnits="userSpaceOnUse" color-interpolation-filters="sRGB">
<feFlood flood-opacity="0" result="BackgroundImageFix"/>
<feColorMatrix in="SourceAlpha" type="matrix" values="0 0 0 0 0 0 0 0 0 0 0 0 0 0 0 0 0 0 127 0" result="hardAlpha"/>
<feOffset dx="7" dy="4"/>
<feGaussianBlur stdDeviation="1.5"/>
<feComposite in2="hardAlpha" operator="out"/>
<feColorMatrix type="matrix" values="0 0 0 0 0 0 0 0 0 0 0 0 0 0 0 0 0 0 0.25 0"/>
<feBlend mode="normal" in2="BackgroundImageFix" result="effect1_dropShadow_4_12"/>
<feBlend mode="normal" in="SourceGraphic" in2="effect1_dropShadow_4_12" result="shape"/>
</filter>
</defs>
</svg>
